<svg width="36" height="36" viewBox="0 0 36 36" fill="none" xmlns="http://www.w3.org/2000/svg">
<path d="M28.5 4.49999H22.23C21.375 2.15999 18.795 0.95999 16.5 1.79999C15.21 2.24999 14.25 3.23999 13.77 4.49999H7.5C6.70435 4.49999 5.94129 4.81606 5.37868 5.37867C4.81607 5.94128 4.5 6.70434 4.5 7.49999V28.5C4.5 29.2956 4.81607 30.0587 5.37868 30.6213C5.94129 31.1839 6.70435 31.5 7.5 31.5H28.5C29.2956 31.5 30.0587 31.1839 30.6213 30.6213C31.1839 30.0587 31.5 29.2956 31.5 28.5V7.49999C31.5 6.70434 31.1839 5.94128 30.6213 5.37867C30.0587 4.81606 29.2956 4.49999 28.5 4.49999ZM18 4.49999C18.3978 4.49999 18.7794 4.65803 19.0607 4.93933C19.342 5.22063 19.5 5.60217 19.5 5.99999C19.5 6.39782 19.342 6.77935 19.0607 7.06065C18.7794 7.34195 18.3978 7.49999 18 7.49999C17.6022 7.49999 17.2206 7.34195 16.9393 7.06065C16.658 6.77935 16.5 6.39782 16.5 5.99999C16.5 5.60217 16.658 5.22063 16.9393 4.93933C17.2206 4.65803 17.6022 4.49999 18 4.49999ZM10.5 10.5H25.5V7.49999H28.5V28.5H7.5V7.49999H10.5V10.5ZM25.5 16.5H10.5V13.5H25.5V16.5ZM22.5 22.5H10.5V19.5H22.5V22.5Z" fill="#0065C6"/>
</svg>
