<svg width="21" height="21" viewBox="0 0 21 21" fill="none" xmlns="http://www.w3.org/2000/svg">
<g clip-path="url(#clip0_23_1028)">
<path d="M20.355 10.9298C20.355 13.582 19.3015 16.1255 17.4261 18.0009C15.5507 19.8762 13.0072 20.9298 10.355 20.9298C7.70288 20.9298 5.15934 19.8762 3.28397 18.0009C1.40861 16.1255 0.355042 13.582 0.355042 10.9298C0.355042 8.27764 1.40861 5.73411 3.28397 3.85874C5.15934 1.98338 7.70288 0.92981 10.355 0.92981C13.0072 0.92981 15.5507 1.98338 17.4261 3.85874C19.3015 5.73411 20.355 8.27764 20.355 10.9298ZM15.3925 7.14231C15.3033 7.05333 15.1969 6.98328 15.08 6.93633C14.963 6.88938 14.8377 6.86651 14.7117 6.86907C14.5857 6.87164 14.4615 6.8996 14.3465 6.95127C14.2315 7.00294 14.1281 7.07727 14.0425 7.16981L9.70129 12.7011L7.08504 10.0836C6.90732 9.91796 6.67226 9.82781 6.42939 9.83209C6.18651 9.83638 5.95478 9.93477 5.78301 10.1065C5.61125 10.2783 5.51286 10.51 5.50857 10.7529C5.50429 10.9958 5.59444 11.2308 5.76004 11.4086L9.06754 14.7173C9.15664 14.8062 9.26275 14.8763 9.37952 14.9234C9.4963 14.9704 9.62135 14.9935 9.74722 14.9911C9.8731 14.9888 9.99721 14.9611 10.1122 14.9098C10.2271 14.8585 10.3305 14.7845 10.4163 14.6923L15.4063 8.45481C15.5764 8.27793 15.6704 8.0414 15.668 7.79601C15.6657 7.55061 15.5672 7.31591 15.3938 7.14231H15.3925Z" fill="#007042"/>
</g>
<defs>
<clipPath id="clip0_23_1028">
<rect width="20" height="20" fill="white" transform="translate(0.355042 0.92981)"/>
</clipPath>
</defs>
</svg>
