<svg width="39" height="39" viewBox="0 0 39 39" fill="none" xmlns="http://www.w3.org/2000/svg">
<path d="M17.7992 18.0808C16.2993 18.0808 14.8332 17.6361 13.5861 16.8028C12.339 15.9695 11.367 14.7852 10.7931 13.3995C10.2191 12.0138 10.0689 10.4891 10.3615 9.01807C10.6541 7.54705 11.3764 6.19583 12.4369 5.13528C13.4975 4.07473 14.8487 3.35249 16.3197 3.05988C17.7908 2.76728 19.3155 2.91746 20.7012 3.49142C22.0869 4.06538 23.2712 5.03736 24.1045 6.28443C24.9377 7.5315 25.3825 8.99766 25.3825 10.4975C25.3825 12.5087 24.5835 14.4376 23.1614 15.8597C21.7392 17.2819 19.8104 18.0808 17.7992 18.0808ZM17.7992 5.16751C16.7278 5.16751 15.6806 5.48519 14.7898 6.08038C13.8991 6.67557 13.2048 7.52154 12.7948 8.5113C12.3848 9.50107 12.2776 10.5902 12.4866 11.6409C12.6956 12.6916 13.2115 13.6568 13.969 14.4143C14.7265 15.1719 15.6917 15.6878 16.7424 15.8968C17.7932 16.1058 18.8823 15.9985 19.872 15.5885C20.8618 15.1785 21.7078 14.4843 22.303 13.5935C22.8981 12.7027 23.2158 11.6555 23.2158 10.5842C23.2158 9.87285 23.0757 9.16848 22.8035 8.5113C22.5313 7.85412 22.1323 7.25699 21.6293 6.75401C21.1263 6.25103 20.5292 5.85204 19.872 5.57982C19.2149 5.30761 18.5105 5.16751 17.7992 5.16751ZM23.8333 19.3917C17.9708 18.0725 11.8376 18.7079 6.37 21.2008C5.61805 21.56 4.98362 22.1254 4.54057 22.8312C4.09753 23.537 3.86411 24.3542 3.8675 25.1875V31.6333C3.8675 31.7756 3.89552 31.9165 3.94996 32.0479C4.00441 32.1793 4.0842 32.2988 4.1848 32.3994C4.2854 32.5 4.40482 32.5798 4.53626 32.6342C4.66769 32.6886 4.80857 32.7167 4.95083 32.7167C5.0931 32.7167 5.23397 32.6886 5.36541 32.6342C5.49684 32.5798 5.61627 32.5 5.71686 32.3994C5.81746 32.2988 5.89726 32.1793 5.9517 32.0479C6.00614 31.9165 6.03417 31.7756 6.03417 31.6333V25.1875C6.02473 24.7658 6.13862 24.3504 6.36185 23.9925C6.58508 23.6346 6.90795 23.3496 7.29083 23.1725C10.5845 21.6517 14.1714 20.8715 17.7992 20.8867C19.8318 20.8841 21.8576 21.1241 23.8333 21.6017V19.3917ZM23.985 29.6942H30.6367V31.2108H23.985V29.6942Z" fill="#B08869"/>
<path d="M35.9342 23.2592H30.3333V25.4258H34.8508V34.4933H19.5V25.4258H26.325V25.8808C26.325 26.1681 26.4391 26.4437 26.6423 26.6469C26.8455 26.85 27.121 26.9642 27.4083 26.9642C27.6956 26.9642 27.9712 26.85 28.1744 26.6469C28.3775 26.4437 28.4917 26.1681 28.4917 25.8808V21.6667C28.4917 21.3793 28.3775 21.1038 28.1744 20.9006C27.9712 20.6975 27.6956 20.5833 27.4083 20.5833C27.121 20.5833 26.8455 20.6975 26.6423 20.9006C26.4391 21.1038 26.325 21.3793 26.325 21.6667V23.2592H18.4167C18.1293 23.2592 17.8538 23.3733 17.6506 23.5765C17.4475 23.7796 17.3333 24.0552 17.3333 24.3425V35.5767C17.3333 35.864 17.4475 36.1395 17.6506 36.3427C17.8538 36.5459 18.1293 36.66 18.4167 36.66H35.9342C36.2215 36.66 36.497 36.5459 36.7002 36.3427C36.9034 36.1395 37.0175 35.864 37.0175 35.5767V24.3425C37.0175 24.0552 36.9034 23.7796 36.7002 23.5765C36.497 23.3733 36.2215 23.2592 35.9342 23.2592Z" fill="#B08869"/>
</svg>
