<svg width="35" height="36" viewBox="0 0 35 36" fill="none" xmlns="http://www.w3.org/2000/svg">
<path d="M4.37501 4.5C3.98823 4.5 3.6173 4.65803 3.34381 4.93934C3.07032 5.22064 2.91667 5.60217 2.91667 6V14.25C2.91667 16.785 4.41876 18.945 6.56251 19.83V29.25C6.56251 29.8467 6.79297 30.419 7.20321 30.841C7.61345 31.2629 8.16984 31.5 8.75001 31.5C9.33017 31.5 9.88657 31.2629 10.2968 30.841C10.707 30.419 10.9375 29.8467 10.9375 29.25V19.83C13.0813 18.945 14.5833 16.785 14.5833 14.25V6C14.5833 5.60217 14.4297 5.22064 14.1562 4.93934C13.8827 4.65803 13.5118 4.5 13.125 4.5C12.7382 4.5 12.3673 4.65803 12.0938 4.93934C11.8203 5.22064 11.6667 5.60217 11.6667 6V12C11.6667 12.1989 11.5898 12.3897 11.4531 12.5303C11.3164 12.671 11.1309 12.75 10.9375 12.75C10.7441 12.75 10.5587 12.671 10.4219 12.5303C10.2852 12.3897 10.2083 12.1989 10.2083 12V6C10.2083 5.60217 10.0547 5.22064 9.7812 4.93934C9.50771 4.65803 9.13678 4.5 8.75001 4.5C8.36323 4.5 7.9923 4.65803 7.71881 4.93934C7.44532 5.22064 7.29167 5.60217 7.29167 6V12C7.29167 12.1989 7.21485 12.3897 7.0781 12.5303C6.94136 12.671 6.75589 12.75 6.56251 12.75C6.36912 12.75 6.18365 12.671 6.04691 12.5303C5.91016 12.3897 5.83334 12.1989 5.83334 12V6C5.83334 5.60217 5.67969 5.22064 5.4062 4.93934C5.13271 4.65803 4.76178 4.5 4.37501 4.5ZM28.9917 4.5C28.8021 4.5 28.6125 4.635 28.4375 4.74L23.3333 7.875V13.5H17.5V16.5H18.9583L20.4167 31.5H29.1667L30.625 16.5H32.0833V13.5H26.25V9.51L29.8958 7.26C30.625 6.84 30.8146 6 30.3917 5.25C30.0854 4.71 29.5458 4.425 28.9917 4.5Z" fill="#007042"/>
</svg>
