<svg width="19" height="16" viewBox="0 0 19 16" fill="none" xmlns="http://www.w3.org/2000/svg">
<g clip-path="url(#clip0_14_380)">
<path d="M17.6821 0.676025H12.2417C11.8682 0.676025 11.345 0.892731 11.0811 1.15659L4.33604 7.90168C4.20885 8.02946 4.13745 8.20241 4.13745 8.38269C4.13745 8.56298 4.20885 8.73593 4.33604 8.86371L10.1744 14.7021C10.3022 14.8293 10.4751 14.9007 10.6554 14.9007C10.8357 14.9007 11.0087 14.8293 11.1364 14.7021L17.8815 7.95699C18.1463 7.69223 18.3621 7.16996 18.3621 6.79639V1.35607C18.3616 1.17585 18.2898 1.00316 18.1624 0.875733C18.035 0.748305 17.8623 0.676504 17.6821 0.676025V0.676025ZM14.2818 6.11635C14.1032 6.11629 13.9263 6.08104 13.7612 6.01261C13.5962 5.94418 13.4462 5.84391 13.3199 5.71753C13.1936 5.59116 13.0935 5.44114 13.0252 5.27605C12.9568 5.11096 12.9217 4.93403 12.9218 4.75536C12.9218 4.57669 12.9571 4.39979 13.0255 4.23474C13.0939 4.0697 13.1942 3.91974 13.3206 3.79345C13.447 3.66715 13.597 3.56699 13.7621 3.49867C13.9272 3.43035 14.1041 3.39522 14.2828 3.39528C14.6436 3.3954 14.9896 3.53886 15.2447 3.79409C15.4997 4.04933 15.643 4.39543 15.6428 4.75627C15.6427 5.1171 15.4993 5.46311 15.244 5.71818C14.9888 5.97324 14.6427 6.11647 14.2818 6.11635V6.11635Z" fill="#464646"/>
<path d="M2.04112 8.38315L9.74824 0.676025H8.61484C8.24127 0.676025 7.71809 0.892731 7.45424 1.15659L0.709144 7.90168C0.58196 8.02946 0.510559 8.20241 0.510559 8.38269C0.510559 8.56298 0.58196 8.73593 0.709144 8.86371L6.54751 14.7021C6.67529 14.8293 6.84824 14.9007 7.02853 14.9007C7.20882 14.9007 7.38177 14.8293 7.50955 14.7021L7.9357 14.2759L2.04202 8.38224L2.04112 8.38315Z" fill="#464646"/>
</g>
<defs>
<clipPath id="clip0_14_380">
<rect width="18.1344" height="14.5075" fill="white" transform="translate(0.227661 0.676025)"/>
</clipPath>
</defs>
</svg>
